<svg xmlns="http://www.w3.org/2000/svg" width="1204" height="64" viewBox="0 0 1204 64"><g transform="translate(0,0)"><path d="M25.56,26.6 H74.44 A9.36,9.36 0 0 1 83.8,35.96 V64.04 A9.36,9.36 0 0 1 74.44,73.4 H25.56 A9.36,9.36 0 0 1 16.2,64.04 V35.96 A9.36,9.36 0 0 1 25.56,26.6 Z" fill="#5E6AD2" stroke="#5E6AD2" stroke-width="0" stroke-linejoin="round" stroke-linecap="round" transform="scale(0.64)"/></g><g transform="translate(76,0)"><path d="M24,50 a26,26 0 1 1 52,0 a26,26 0 1 1 -52,0 Z" fill="#5E6AD2" stroke="#5E6AD2" stroke-width="0" stroke-linejoin="round" stroke-linecap="round" transform="scale(0.64)"/></g><g transform="translate(152,0)"><path d="M50,24 L76,76 L24,76 L50,24 Z" fill="#5E6AD2" stroke="#5E6AD2" stroke-width="0" stroke-linejoin="round" stroke-linecap="round" transform="scale(0.64)"/></g><g transform="translate(228,0)"><path d="M50,24 L76,50 L50,76 L24,50 L50,24 Z" fill="#5E6AD2" stroke="#5E6AD2" stroke-width="0" stroke-linejoin="round" stroke-linecap="round" transform="scale(0.64)"/></g><g transform="translate(304,0)"><path d="M50,24 L72.52,37 L72.52,63 L50,76 L27.48,63 L27.48,37 Z" fill="#5E6AD2" stroke="#5E6AD2" stroke-width="0" stroke-linejoin="round" stroke-linecap="round" transform="scale(0.64)"/></g><g transform="translate(380,0)"><path d="M50,24 L56.88,40.53 L74.73,41.97 L61.13,53.62 L65.28,71.03 L50,61.7 L34.72,71.03 L38.87,53.62 L25.27,41.97 L43.12,40.53 Z" fill="#5E6AD2" stroke="#5E6AD2" stroke-width="0" stroke-linejoin="round" stroke-linecap="round" transform="scale(0.64)"/></g><g transform="translate(456,0)"><path d="M50,24 L56.5,38.74 L72.52,37 L63,50 L72.52,63 L56.5,61.26 L50,76 L43.5,61.26 L27.48,63 L37,50 L27.48,37 L43.5,38.74 Z" fill="#5E6AD2" stroke="#5E6AD2" stroke-width="0" stroke-linejoin="round" stroke-linecap="round" transform="scale(0.64)"/></g><g transform="translate(532,0)"><path d="M24,41.68 L56.24,41.68 L56.24,30.24 L76,50 L56.24,69.76 L56.24,58.32 L24,58.32 L24,41.68 Z" fill="#5E6AD2" stroke="#5E6AD2" stroke-width="0" stroke-linejoin="round" stroke-linecap="round" transform="scale(0.64)"/></g><g transform="translate(608,0)"><path d="M24,24 L50,24 L76,50 L50,76 L24,76 L50,50 L24,24 Z" fill="#5E6AD2" stroke="#5E6AD2" stroke-width="0" stroke-linejoin="round" stroke-linecap="round" transform="scale(0.64)"/></g><g transform="translate(684,0)"><path d="M41.16,24 L58.84,24 L58.84,41.16 L76,41.16 L76,58.84 L58.84,58.84 L58.84,76 L41.16,76 L41.16,58.84 L24,58.84 L24,41.16 L41.16,41.16 L41.16,24 Z" fill="#5E6AD2" stroke="#5E6AD2" stroke-width="0" stroke-linejoin="round" stroke-linecap="round" transform="scale(0.64)"/></g><g transform="translate(760,0)"><path d="M50,70.8 C24,40.64 35.44,24 50,42.2 C64.56,24 76,40.64 50,70.8 Z" fill="#5E6AD2" stroke="#5E6AD2" stroke-width="0" stroke-linejoin="round" stroke-linecap="round" transform="scale(0.64)"/></g><g transform="translate(836,0)"><path d="M56.24,24 L33.36,53.12 L48.96,53.12 L43.76,76 L66.64,46.88 L51.04,46.88 L56.24,24 Z" fill="#5E6AD2" stroke="#5E6AD2" stroke-width="0" stroke-linejoin="round" stroke-linecap="round" transform="scale(0.64)"/></g><g transform="translate(912,0)"><path d="M50,24 L73.4,33.36 L73.4,55.2 C73.4,66.64 68.2,67.68 50,76 Q26.6,66.64 26.6,55.2 L26.6,33.36 L50,24 Z" fill="#5E6AD2" stroke="#5E6AD2" stroke-width="0" stroke-linejoin="round" stroke-linecap="round" transform="scale(0.64)"/></g><g transform="translate(988,0)"><path d="M50,26.6 C68.2,25.04 76,34.4 73.4,50 C71.84,66.64 68.2,76 50,73.4 C31.8,76 26.6,65.6 26.6,50 C24,33.36 34.4,24 50,26.6 Z" fill="#5E6AD2" stroke="#5E6AD2" stroke-width="0" stroke-linejoin="round" stroke-linecap="round" transform="scale(0.64)"/></g><g transform="translate(1064,0)"><path d="M50,24 L57.56,31.74 L68.38,31.62 L68.26,42.44 L76,50 L68.26,57.56 L68.38,68.38 L57.56,68.26 L50,76 L42.44,68.26 L31.62,68.38 L31.74,57.56 L24,50 L31.74,42.44 L31.62,31.62 L42.44,31.74 L50,24 Z" fill="#5E6AD2" stroke="#5E6AD2" stroke-width="0" stroke-linejoin="round" stroke-linecap="round" transform="scale(0.64)"/></g><g transform="translate(1140,0)"><path d="M55.2,25.04 C26.6,24 26.6,76 55.2,74.96 C78.6,60.4 78.6,39.6 55.2,25.04 Z" fill="#5E6AD2" stroke="#5E6AD2" stroke-width="0" stroke-linejoin="round" stroke-linecap="round" transform="scale(0.64)"/></g></svg>